<svg xmlns="http://www.w3.org/2000/svg" version="1.1" xmlns:xlink="http://www.w3.org/1999/xlink" xmlns:svgjs="http://svgjs.com/svgjs" width="1440" height="560" preserveAspectRatio="none" viewBox="0 0 1440 560">
    <g mask="url(&quot;#SvgjsMask1000&quot;)" fill="none">
        <rect width="1440" height="560" x="0" y="0" fill="#270082"></rect>
        <path d="M224.2 455.89L258.47 455.89L258.47 467.78L224.2 467.78z" stroke="#e73635"></path>
        <path d="M753.18 490.96L799.34 490.96L799.34 537.12L753.18 537.12z" stroke="#d3b714"></path>
        <path d="M888.4 22.68L902.56 22.68L902.56 36.84L888.4 36.84z" stroke="#d3b714"></path>
        <path d="M997.49 485.15L1007.02 485.15L1007.02 494.68L997.49 494.68z" stroke="#d3b714"></path>
        <path d="M827.93 106.18 a50.03 50.03 0 1 0 100.06 0 a50.03 50.03 0 1 0 -100.06 0z" fill="#d3b714"></path>
        <path d="M1260.58 48.74L1305.22 48.74L1305.22 53.16L1260.58 53.16z" fill="#d3b714"></path>
        <path d="M717.61 416.2L769.8 416.2L769.8 457.53L717.61 457.53z" stroke="#e73635"></path>
        <path d="M727.12 385.21L774.62 385.21L774.62 432.71L727.12 432.71z" stroke="#037b0b"></path>
        <path d="M1126.92 428.55 a43.96 43.96 0 1 0 87.92 0 a43.96 43.96 0 1 0 -87.92 0z" fill="#037b0b"></path>
        <path d="M812.51 201.59L842.97 201.59L842.97 239.16L812.51 239.16z" fill="#d3b714"></path>
        <path d="M805.45 476.43a55.59 55.59 0 1 0-41.46-103.16z" stroke="#d3b714"></path>
        <path d="M1255.75 276.4a41.51 41.51 0 1 0 0.24-83.02z" stroke="#037b0b"></path>
        <path d="M1368.93 267.39a51.38 51.38 0 1 0-88.7 51.9z" fill="#d3b714"></path>
        <path d="M1040.11 296.35L1050.72 296.35L1050.72 306.96L1040.11 306.96z" fill="#037b0b"></path>
        <path d="M1318.32 491.1L1338.21 491.1L1338.21 493.73L1318.32 493.73z" fill="#d3b714"></path>
        <path d="M397.9 112.3 a35.05 35.05 0 1 0 70.1 0 a35.05 35.05 0 1 0 -70.1 0z" stroke="#e73635"></path>
        <path d="M807.63 328.59 a44.63 44.63 0 1 0 89.26 0 a44.63 44.63 0 1 0 -89.26 0z" fill="#037b0b"></path>
        <path d="M454.52 192.09 a21.59 21.59 0 1 0 43.18 0 a21.59 21.59 0 1 0 -43.18 0z" fill="#d3b714"></path>
        <path d="M105.28 7.31L154.26 7.31L154.26 56.29L105.28 56.29z" fill="#d3b714"></path>
        <path d="M594.86 84.34 a23.92 23.92 0 1 0 47.84 0 a23.92 23.92 0 1 0 -47.84 0z" stroke="#e73635"></path>
        <path d="M966.16 547.27a54.66 54.66 0 1 0 86.22-67.2z" stroke="#037b0b"></path>
        <path d="M500.37 308.39L504.97 308.39L504.97 312.99L500.37 312.99z" fill="#d3b714"></path>
        <path d="M6.03 235.19L58.74 235.19L58.74 287.9L6.03 287.9z" fill="#037b0b"></path>
        <path d="M1108.02 306.84L1155.89 306.84L1155.89 331.01L1108.02 331.01z" stroke="#e73635"></path>
        <path d="M311.95 276.8L337.2 276.8L337.2 294.14L311.95 294.14z" fill="#d3b714"></path>
        <path d="M398.38 261.22L434.1 261.22L434.1 283.63L398.38 283.63z" stroke="#d3b714"></path>
        <path d="M1277.09 557.57 a22.26 22.26 0 1 0 44.52 0 a22.26 22.26 0 1 0 -44.52 0z" fill="#037b0b"></path>
        <path d="M1239.18 553.77 a45.77 45.77 0 1 0 91.54 0 a45.77 45.77 0 1 0 -91.54 0z" stroke="#e73635"></path>
        <path d="M1040.81 358a42.62 42.62 0 1 0-74.52-41.39z" stroke="#037b0b"></path>
        <path d="M15.32 400.66 a38.7 38.7 0 1 0 77.4 0 a38.7 38.7 0 1 0 -77.4 0z" stroke="#d3b714"></path>
        <path d="M1045.14 535.21L1061.34 535.21L1061.34 545.85L1045.14 545.85z" fill="#037b0b"></path>
        <path d="M643.53 482.38a21.36 21.36 0 1 0-19.3 38.11z" stroke="#037b0b"></path>
        <path d="M1417.89 200.97a9.84 9.84 0 1 0 11.36 16.07z" stroke="#e73635"></path>
    </g>
    <defs>
        <mask id="SvgjsMask1000">
            <rect width="1440" height="560" fill="#ffffff"></rect>
        </mask>
    </defs>
</svg>